<svg width="53" height="53" viewBox="0 0 53 53" fill="none" xmlns="http://www.w3.org/2000/svg">
<path fill-rule="evenodd" clip-rule="evenodd" d="M13.3973 8.55485C11.8455 8.38142 10.2379 8.38142 8.6861 8.55485C8.65727 8.55807 8.62876 8.57111 8.60533 8.59422C8.58244 8.61678 8.57351 8.63959 8.57124 8.65895C8.38608 10.242 8.38608 11.8413 8.57124 13.4244C8.57351 13.4438 8.58244 13.4666 8.60533 13.4891C8.62876 13.5122 8.65727 13.5253 8.6861 13.5285C10.2379 13.7019 11.8455 13.7019 13.3973 13.5285C13.4261 13.5253 13.4546 13.5122 13.478 13.4891C13.5009 13.4666 13.5099 13.4438 13.5121 13.4244C13.6973 11.8413 13.6973 10.242 13.5121 8.65895C13.5099 8.63959 13.5009 8.61678 13.478 8.59422C13.4546 8.57111 13.4261 8.55807 13.3973 8.55485ZM8.31817 5.26284C10.1145 5.06208 11.9689 5.06208 13.7652 5.26284C15.3383 5.43866 16.6153 6.67628 16.8022 8.27415C17.0173 10.1129 17.0173 11.9705 16.8022 13.8092C16.6153 15.4071 15.3383 16.6447 13.7652 16.8205C11.9689 17.0213 10.1145 17.0213 8.31817 16.8205C6.74511 16.6447 5.46805 15.4071 5.28117 13.8092C5.06611 11.9705 5.06611 10.1129 5.28117 8.27415C5.46805 6.67628 6.74511 5.43866 8.31817 5.26284Z" fill="#FF9066"/>
<path fill-rule="evenodd" clip-rule="evenodd" d="M28.8556 8.55485C27.3038 8.38142 25.6962 8.38142 24.1444 8.55485C24.1156 8.55807 24.0871 8.57111 24.0637 8.59422C24.0408 8.61678 24.0318 8.63959 24.0296 8.65895C23.8444 10.242 23.8444 11.8413 24.0296 13.4244C24.0318 13.4438 24.0408 13.4666 24.0637 13.4891C24.0871 13.5122 24.1156 13.5253 24.1444 13.5285C25.6962 13.7019 27.3038 13.7019 28.8556 13.5285C28.8844 13.5253 28.9129 13.5122 28.9364 13.4891C28.9593 13.4666 28.9682 13.4438 28.9705 13.4244C29.1556 11.8413 29.1556 10.242 28.9705 8.65895C28.9682 8.63959 28.9593 8.61678 28.9364 8.59422C28.9129 8.57111 28.8844 8.55807 28.8556 8.55485ZM23.7765 5.26284C25.5728 5.06208 27.4273 5.06208 29.2235 5.26284C30.7966 5.43866 32.0737 6.67628 32.2605 8.27415C32.4756 10.1129 32.4756 11.9705 32.2605 13.8092C32.0737 15.4071 30.7966 16.6447 29.2235 16.8205C27.4273 17.0213 25.5728 17.0213 23.7765 16.8205C22.2034 16.6447 20.9264 15.4071 20.7395 13.8092C20.5244 11.9705 20.5244 10.1129 20.7395 8.27415C20.9264 6.67628 22.2034 5.43866 23.7765 5.26284Z" fill="#FF9066"/>
<path fill-rule="evenodd" clip-rule="evenodd" d="M44.3139 8.55485C42.7622 8.38142 41.1545 8.38142 39.6028 8.55485C39.5739 8.55807 39.5454 8.57111 39.522 8.59422C39.4991 8.61678 39.4902 8.63959 39.4879 8.65895C39.3027 10.242 39.3027 11.8413 39.4879 13.4244C39.4902 13.4438 39.4991 13.4666 39.522 13.4891C39.5454 13.5122 39.5739 13.5253 39.6028 13.5285C41.1545 13.7019 42.7622 13.7019 44.3139 13.5285C44.3428 13.5253 44.3713 13.5122 44.3947 13.4891C44.4176 13.4666 44.4265 13.4438 44.4288 13.4244C44.614 11.8413 44.614 10.242 44.4288 8.65895C44.4265 8.63959 44.4176 8.61678 44.3947 8.59422C44.3713 8.57111 44.3428 8.55807 44.3139 8.55485ZM39.2348 5.26284C41.0311 5.06208 42.8856 5.06208 44.6819 5.26284C46.2549 5.43866 47.532 6.67628 47.7189 8.27415C47.9339 10.1129 47.9339 11.9705 47.7189 13.8092C47.532 15.4071 46.2549 16.6447 44.6819 16.8205C42.8856 17.0213 41.0311 17.0213 39.2348 16.8205C37.6618 16.6447 36.3847 15.4071 36.1978 13.8092C35.9828 11.9705 35.9828 10.1129 36.1978 8.27415C36.3847 6.67628 37.6618 5.43866 39.2348 5.26284Z" fill="#FF9066"/>
<path fill-rule="evenodd" clip-rule="evenodd" d="M13.3973 24.0132C11.8455 23.8397 10.2379 23.8397 8.6861 24.0132C8.65727 24.0164 8.62876 24.0294 8.60533 24.0526C8.58244 24.0751 8.57351 24.0979 8.57124 24.1173C8.38608 25.7004 8.38608 27.2997 8.57124 28.8827C8.57351 28.9021 8.58244 28.9249 8.60533 28.9475C8.62876 28.9706 8.65727 28.9836 8.6861 28.9868C10.2379 29.1603 11.8455 29.1603 13.3973 28.9868C13.4261 28.9836 13.4546 28.9706 13.478 28.9475C13.5009 28.9249 13.5099 28.9021 13.5121 28.8827C13.6973 27.2997 13.6973 25.7004 13.5121 24.1173C13.5099 24.0979 13.5009 24.0751 13.478 24.0526C13.4546 24.0294 13.4261 24.0164 13.3973 24.0132ZM8.31817 20.7212C10.1145 20.5204 11.9689 20.5204 13.7652 20.7212C15.3383 20.897 16.6153 22.1346 16.8022 23.7325C17.0173 25.5712 17.0173 27.4288 16.8022 29.2675C16.6153 30.8654 15.3383 32.103 13.7652 32.2789C11.9689 32.4796 10.1145 32.4796 8.31817 32.2789C6.74511 32.103 5.46805 30.8654 5.28117 29.2675C5.06611 27.4288 5.06611 25.5712 5.28117 23.7325C5.46805 22.1346 6.74511 20.897 8.31817 20.7212Z" fill="#FF9066"/>
<path fill-rule="evenodd" clip-rule="evenodd" d="M28.8556 24.0132C27.3038 23.8397 25.6962 23.8397 24.1444 24.0132C24.1156 24.0164 24.0871 24.0294 24.0637 24.0526C24.0408 24.0751 24.0318 24.0979 24.0296 24.1173C23.8444 25.7004 23.8444 27.2997 24.0296 28.8827C24.0318 28.9021 24.0408 28.9249 24.0637 28.9475C24.0871 28.9706 24.1156 28.9836 24.1444 28.9868C25.6962 29.1603 27.3038 29.1603 28.8556 28.9868C28.8844 28.9836 28.9129 28.9706 28.9364 28.9475C28.9593 28.9249 28.9682 28.9021 28.9705 28.8827C29.1556 27.2997 29.1556 25.7004 28.9705 24.1173C28.9682 24.0979 28.9593 24.0751 28.9364 24.0526C28.9129 24.0294 28.8844 24.0164 28.8556 24.0132ZM23.7765 20.7212C25.5728 20.5204 27.4273 20.5204 29.2235 20.7212C30.7966 20.897 32.0737 22.1346 32.2605 23.7325C32.4756 25.5712 32.4756 27.4288 32.2605 29.2675C32.0737 30.8654 30.7966 32.103 29.2235 32.2789C27.4273 32.4796 25.5728 32.4796 23.7765 32.2789C22.2034 32.103 20.9264 30.8654 20.7395 29.2675C20.5244 27.4288 20.5244 25.5712 20.7395 23.7325C20.9264 22.1346 22.2034 20.897 23.7765 20.7212Z" fill="#FF9066"/>
<path fill-rule="evenodd" clip-rule="evenodd" d="M44.3139 24.0132C42.7622 23.8397 41.1545 23.8397 39.6028 24.0132C39.5739 24.0164 39.5454 24.0294 39.522 24.0526C39.4991 24.0751 39.4902 24.0979 39.4879 24.1173C39.3027 25.7004 39.3027 27.2997 39.4879 28.8827C39.4902 28.9021 39.4991 28.9249 39.522 28.9475C39.5454 28.9706 39.5739 28.9836 39.6028 28.9868C41.1545 29.1603 42.7622 29.1603 44.3139 28.9868C44.3428 28.9836 44.3713 28.9706 44.3947 28.9475C44.4176 28.9249 44.4265 28.9021 44.4288 28.8827C44.614 27.2997 44.614 25.7004 44.4288 24.1173C44.4265 24.0979 44.4176 24.0751 44.3947 24.0526C44.3713 24.0294 44.3428 24.0164 44.3139 24.0132ZM39.2348 20.7212C41.0311 20.5204 42.8856 20.5204 44.6819 20.7212C46.2549 20.897 47.532 22.1346 47.7189 23.7325C47.9339 25.5712 47.9339 27.4288 47.7189 29.2675C47.532 30.8654 46.2549 32.103 44.6819 32.2789C42.8856 32.4796 41.0311 32.4796 39.2348 32.2789C37.6618 32.103 36.3847 30.8654 36.1978 29.2675C35.9828 27.4288 35.9828 25.5712 36.1978 23.7325C36.3847 22.1346 37.6618 20.897 39.2348 20.7212Z" fill="#FF9066"/>
<path fill-rule="evenodd" clip-rule="evenodd" d="M13.3973 39.4715C11.8455 39.2981 10.2379 39.2981 8.6861 39.4715C8.65727 39.4747 8.62876 39.4878 8.60533 39.5109C8.58244 39.5334 8.57351 39.5563 8.57124 39.5756C8.38608 41.1587 8.38608 42.758 8.57124 44.3411C8.57351 44.3604 8.58244 44.3832 8.60533 44.4058C8.62876 44.4289 8.65727 44.442 8.6861 44.4452C10.2379 44.6186 11.8455 44.6186 13.3973 44.4452C13.4261 44.442 13.4546 44.4289 13.478 44.4058C13.5009 44.3832 13.5099 44.3604 13.5121 44.3411C13.6973 42.758 13.6973 41.1587 13.5121 39.5756C13.5099 39.5563 13.5009 39.5334 13.478 39.5109C13.4546 39.4878 13.4261 39.4747 13.3973 39.4715ZM8.31817 36.1795C10.1145 35.9788 11.9689 35.9788 13.7652 36.1795C15.3383 36.3553 16.6153 37.593 16.8022 39.1908C17.0173 41.0296 17.0173 42.8871 16.8022 44.7259C16.6153 46.3237 15.3383 47.5614 13.7652 47.7372C11.9689 47.9379 10.1145 47.9379 8.31817 47.7372C6.74511 47.5614 5.46805 46.3237 5.28117 44.7259C5.06611 42.8871 5.06611 41.0296 5.28117 39.1908C5.46805 37.593 6.74511 36.3553 8.31817 36.1795Z" fill="#FF9066"/>
<path fill-rule="evenodd" clip-rule="evenodd" d="M28.8556 39.4715C27.3038 39.2981 25.6962 39.2981 24.1444 39.4715C24.1156 39.4747 24.0871 39.4878 24.0637 39.5109C24.0408 39.5334 24.0318 39.5563 24.0296 39.5756C23.8444 41.1587 23.8444 42.758 24.0296 44.3411C24.0318 44.3604 24.0408 44.3832 24.0637 44.4058C24.0871 44.4289 24.1156 44.442 24.1444 44.4452C25.6962 44.6186 27.3038 44.6186 28.8556 44.4452C28.8844 44.442 28.9129 44.4289 28.9364 44.4058C28.9593 44.3832 28.9682 44.3604 28.9705 44.3411C29.1556 42.758 29.1556 41.1587 28.9705 39.5756C28.9682 39.5563 28.9593 39.5334 28.9364 39.5109C28.9129 39.4878 28.8844 39.4747 28.8556 39.4715ZM23.7765 36.1795C25.5728 35.9788 27.4273 35.9788 29.2235 36.1795C30.7966 36.3553 32.0737 37.593 32.2605 39.1908C32.4756 41.0296 32.4756 42.8871 32.2605 44.7259C32.0737 46.3237 30.7966 47.5614 29.2235 47.7372C27.4273 47.9379 25.5728 47.9379 23.7765 47.7372C22.2034 47.5614 20.9264 46.3237 20.7395 44.7259C20.5244 42.8871 20.5244 41.0296 20.7395 39.1908C20.9264 37.593 22.2034 36.3553 23.7765 36.1795Z" fill="#FF9066"/>
<path fill-rule="evenodd" clip-rule="evenodd" d="M44.3139 39.4715C42.7622 39.2981 41.1545 39.2981 39.6028 39.4715C39.5739 39.4747 39.5454 39.4878 39.522 39.5109C39.4991 39.5334 39.4902 39.5563 39.4879 39.5756C39.3027 41.1587 39.3027 42.758 39.4879 44.3411C39.4902 44.3604 39.4991 44.3832 39.522 44.4058C39.5454 44.4289 39.5739 44.442 39.6028 44.4452C41.1545 44.6186 42.7622 44.6186 44.3139 44.4452C44.3428 44.442 44.3713 44.4289 44.3947 44.4058C44.4176 44.3832 44.4265 44.3604 44.4288 44.3411C44.614 42.758 44.614 41.1587 44.4288 39.5756C44.4265 39.5563 44.4176 39.5334 44.3947 39.5109C44.3713 39.4878 44.3428 39.4747 44.3139 39.4715ZM39.2348 36.1795C41.0311 35.9788 42.8856 35.9788 44.6819 36.1795C46.2549 36.3553 47.532 37.593 47.7189 39.1908C47.9339 41.0296 47.9339 42.8871 47.7189 44.7259C47.532 46.3237 46.2549 47.5614 44.6819 47.7372C42.8856 47.9379 41.0311 47.9379 39.2348 47.7372C37.6618 47.5614 36.3847 46.3237 36.1978 44.7259C35.9828 42.8871 35.9828 41.0296 36.1978 39.1908C36.3847 37.593 37.6618 36.3553 39.2348 36.1795Z" fill="#FF9066"/>
</svg>
